<?xml version="1.0" encoding="iso-8859-1"?>
<!-- Generator: Adobe Illustrator 19.0.0, SVG Export Plug-In . SVG Version: 6.00 Build 0)  -->
<svg version="1.1" id="Capa_1" xmlns="http://www.w3.org/2000/svg" xmlns:xlink="http://www.w3.org/1999/xlink" x="0px" y="0px"
	 viewBox="0 0 512 512" style="enable-background:new 0 0 512 512;" xml:space="preserve">
<g>
	<path style="fill:#455A64;" d="M176,400h96c8.837,0,16,7.163,16,16v64c0,8.837-7.163,16-16,16h-96c-8.837,0-16-7.163-16-16v-64
		C160,407.163,167.163,400,176,400z"/>
	<path style="fill:#455A64;" d="M368,464h-96c-8.837,0-16-7.163-16-16s7.163-16,16-16h96c61.856,0,112-50.144,112-112V32
		c0-8.837,7.163-16,16-16s16,7.163,16,16v288C511.912,399.492,447.492,463.912,368,464z"/>
</g>
<path style="fill:#2196F3;" d="M320,112H128C57.308,112,0,169.308,0,240s57.308,128,128,128c15.482,0.013,30.829-2.874,45.248-8.512
	c2.035-0.785,3.879-1.996,5.408-3.552L224,310.624l45.344,45.312c1.529,1.556,3.373,2.767,5.408,3.552
	c14.42,5.635,29.766,8.522,45.248,8.512c70.692,0,128-57.308,128-128S390.692,112,320,112z"/>
<path d="M272,496h-96c-8.837,0-16-7.163-16-16v-64c0-8.837,7.163-16,16-16h96c8.837,0,16,7.163,16,16v64
	C288,488.837,280.837,496,272,496z M192,464h64v-32h-64V464z"/>
<path d="M368,464h-96c-8.837,0-16-7.163-16-16s7.163-16,16-16h96c61.856,0,112-50.144,112-112V32c0-8.837,7.163-16,16-16
	s16,7.163,16,16v288C511.912,399.492,447.492,463.912,368,464z"/>
<path d="M320,368c-15.478,0.004-30.822-2.872-45.248-8.48c-2.026-0.803-3.866-2.012-5.408-3.552L224,310.624l-45.344,45.344
	c-1.542,1.54-3.382,2.749-5.408,3.552c-14.426,5.608-29.77,8.484-45.248,8.48C57.308,368,0,310.692,0,240s57.308-128,128-128h192
	c70.692,0,128,57.308,128,128S390.692,368,320,368z M289.504,330.88c9.807,3.4,20.116,5.131,30.496,5.12c53.019,0,96-42.981,96-96
	s-42.981-96-96-96H128c-53.019,0-96,42.981-96,96s42.981,96,96,96c10.38,0.011,20.689-1.72,30.496-5.12l54.176-54.208
	c6.24-6.256,16.371-6.269,22.627-0.029c0.01,0.01,0.019,0.019,0.029,0.029L289.504,330.88z"/>
<g>
</g>
<g>
</g>
<g>
</g>
<g>
</g>
<g>
</g>
<g>
</g>
<g>
</g>
<g>
</g>
<g>
</g>
<g>
</g>
<g>
</g>
<g>
</g>
<g>
</g>
<g>
</g>
<g>
</g>
</svg>
