<?xml version="1.0" encoding="iso-8859-1"?>
<!-- Generator: Adobe Illustrator 19.0.0, SVG Export Plug-In . SVG Version: 6.00 Build 0)  -->
<svg version="1.1" id="Capa_1" xmlns="http://www.w3.org/2000/svg" xmlns:xlink="http://www.w3.org/1999/xlink" x="0px" y="0px"
	 viewBox="0 0 423.154 423.154" style="enable-background:new 0 0 423.154 423.154;" xml:space="preserve">
<path style="fill:#914400;" d="M146.354,408.777v-67.2l11.2,4.8c4,1.6,8.8,3.2,13.6,4h3.2c3.2,0,7.2-0.8,10.4-2.4l11.2-5.6v66.4
	L146.354,408.777z"/>
<path style="fill:#E8E8E8;" d="M174.354,350.377h-3.2c-32.8-4-79.2-59.2-96.8-83.2l-9.6-12.8h176.8l-4.8,11.2
	c-8.8,22.4-27.2,61.6-46.4,79.2C185.554,348.777,179.954,350.377,174.354,350.377L174.354,350.377z"/>
<path style="fill:#F1A722;" d="M7.954,253.577l0.8-8.8c1.6-10.4,5.6-20.8,10.4-30.4c5.6-9.6,8.8-20,10.4-31.2
	c0-92.8,81.6-168,182.4-168c90.4,0,165.6,60,180,141.6c0.8,4,6.4,8,11.2,12c8,6.4,10.4,8,11.2,10.4l0.8,1.6v1.6
	c0,26.4-47.2,36-92.8,44.8c-32.8,6.4-63.2,12-77.6,24l-2.4,1.6L7.954,253.577z"/>
<path style="fill:#3F2300;" d="M407.154,163.177c-3.2-2.4-5.6-4.8-8.8-7.2c-14.4-86.4-93.6-148.8-188-148.8
	c-104.8,0-190.4,79.2-190.4,176c-0.8,9.6-4,19.2-8.8,28c-7.2,16-14.4,32-9.6,45.6l2.4,4.8h56.8c10.4,14.4,44,59.2,78.4,82.4v64
	c0,4.8,3.2,8,8,8h49.6c4.8,0,8-3.2,8-8v-67.2c22.4-26.4,40-72,44-82.4c12.8-10.4,44-16.8,74.4-22.4c48.8-9.6,100-19.2,100-52.8
	C422.354,175.177,414.354,168.777,407.154,163.177z M187.954,400.777h-33.6v-47.2c4.8,2.4,10.4,4,16,4.8h4c4.8,0,9.6-0.8,13.6-3.2
	L187.954,400.777z M184.754,338.377c-3.2,3.2-8,4.8-12.8,4c-27.2-3.2-69.6-51.2-91.2-80h148.8
	C221.554,281.577,203.154,321.577,184.754,338.377L184.754,338.377z M319.154,220.777c-33.6,6.4-64.8,12.8-80.8,25.6h-222.4
	c1.6-9.6,4.8-19.2,9.6-28c5.6-10.4,9.6-22.4,10.4-34.4c0-88,78.4-160,174.4-160c86.4,0,158.4,56.8,172,135.2c1.6,7.2,8,12,14.4,17.6
	c3.2,2.4,6.4,4.8,8.8,8C406.354,203.977,359.954,212.777,319.154,220.777z"/>
<g>
</g>
<g>
</g>
<g>
</g>
<g>
</g>
<g>
</g>
<g>
</g>
<g>
</g>
<g>
</g>
<g>
</g>
<g>
</g>
<g>
</g>
<g>
</g>
<g>
</g>
<g>
</g>
<g>
</g>
</svg>
